<?xml version="1.0" encoding="UTF-8" standalone="no"?>
<!DOCTYPE svg PUBLIC "-//W3C//DTD SVG 1.1//EN"
 "http://www.w3.org/Graphics/SVG/1.1/DTD/svg11.dtd">
<!-- Generated by graphviz version 2.47.0 (20210316.0004)
 -->
<!-- Title: dependencies Pages: 1 -->
<svg width="504pt" height="284pt"
 viewBox="0.00 0.00 504.00 284.00" xmlns="http://www.w3.org/2000/svg" xmlns:xlink="http://www.w3.org/1999/xlink">
<g id="graph0" class="graph" transform="scale(1 1) rotate(0) translate(4 280)">
<title>dependencies</title>
<polygon fill="white" stroke="transparent" points="-4,4 -4,-280 500,-280 500,4 -4,4"/>
<text text-anchor="start" x="227.01" y="-42.4" font-family="Times-12" font-weight="bold" font-size="14.00">Legend</text>
<polygon fill="#ffffb3" stroke="transparent" points="14,-10 14,-30 34,-30 34,-10 14,-10"/>
<text text-anchor="start" x="37.63" y="-15.4" font-family="Times-12" font-size="14.00"> &#160;Declarations</text>
<polygon fill="#8dd3c7" stroke="transparent" points="127,-10 127,-30 147,-30 147,-10 127,-10"/>
<text text-anchor="start" x="150.73" y="-15.4" font-family="Times-12" font-size="14.00"> &#160;Module</text>
<polygon fill="#80b1d3" stroke="transparent" points="213,-10 213,-30 233,-30 233,-10 213,-10"/>
<text text-anchor="start" x="236.78" y="-15.4" font-family="Times-12" font-size="14.00"> &#160;Bootstrap</text>
<polygon fill="#fdb462" stroke="transparent" points="310,-10 310,-30 330,-30 330,-10 310,-10"/>
<text text-anchor="start" x="333.67" y="-15.4" font-family="Times-12" font-size="14.00"> &#160;Providers</text>
<polygon fill="#fb8072" stroke="transparent" points="406,-10 406,-30 426,-30 426,-10 406,-10"/>
<text text-anchor="start" x="429.73" y="-15.4" font-family="Times-12" font-size="14.00"> &#160;Exports</text>
<g id="clust1" class="cluster">
<title>cluster_SharedModule</title>
<polygon fill="none" stroke="black" stroke-dasharray="1,5" points="94,-70 94,-268 402,-268 402,-70 94,-70"/>
</g>
<g id="clust2" class="cluster">
<title>cluster_SharedModule_declarations</title>
<polygon fill="none" stroke="black" points="106,-78 106,-130 391,-130 391,-78 106,-78"/>
</g>
<g id="clust6" class="cluster">
<title>cluster_SharedModule_exports</title>
<polygon fill="none" stroke="black" points="102,-208 102,-260 394,-260 394,-208 102,-208"/>
</g>
<!-- LoaderComponent -->
<g id="node1" class="node">
<title>LoaderComponent</title>
<polygon fill="#ffffb3" stroke="black" points="383.47,-122 262.53,-122 262.53,-86 383.47,-86 383.47,-122"/>
<text text-anchor="middle" x="323" y="-99.8" font-family="Times,serif" font-size="14.00">LoaderComponent</text>
</g>
<!-- SharedModule -->
<g id="node3" class="node">
<title>SharedModule</title>
<polygon fill="#8dd3c7" stroke="black" points="229.42,-187 226.42,-191 205.42,-191 202.42,-187 130.58,-187 130.58,-151 229.42,-151 229.42,-187"/>
<text text-anchor="middle" x="180" y="-164.8" font-family="Times,serif" font-size="14.00">SharedModule</text>
</g>
<!-- LoaderComponent&#45;&gt;SharedModule -->
<g id="edge1" class="edge">
<title>LoaderComponent&#45;&gt;SharedModule</title>
<path fill="none" stroke="black" d="M343.16,-122.02C343.16,-139.37 343.16,-163 343.16,-163 343.16,-163 239.4,-163 239.4,-163"/>
<polygon fill="black" stroke="black" points="239.4,-159.5 229.4,-163 239.4,-166.5 239.4,-159.5"/>
</g>
<!-- TempConvertorPipe -->
<g id="node2" class="node">
<title>TempConvertorPipe</title>
<polygon fill="#ffffb3" stroke="black" points="244.31,-122 113.69,-122 113.69,-86 244.31,-86 244.31,-122"/>
<text text-anchor="middle" x="179" y="-99.8" font-family="Times,serif" font-size="14.00">TempConvertorPipe</text>
</g>
<!-- TempConvertorPipe&#45;&gt;SharedModule -->
<g id="edge2" class="edge">
<title>TempConvertorPipe&#45;&gt;SharedModule</title>
<path fill="none" stroke="black" d="M180,-122.11C180,-122.11 180,-140.99 180,-140.99"/>
<polygon fill="black" stroke="black" points="176.5,-140.99 180,-150.99 183.5,-140.99 176.5,-140.99"/>
</g>
<!-- LoaderComponent  -->
<g id="node4" class="node">
<title>LoaderComponent </title>
<polygon fill="#fb8072" stroke="black" points="386.48,-252 261.52,-252 261.52,-216 386.48,-216 386.48,-252"/>
<text text-anchor="middle" x="324" y="-229.8" font-family="Times,serif" font-size="14.00">LoaderComponent </text>
</g>
<!-- SharedModule&#45;&gt;LoaderComponent  -->
<g id="edge3" class="edge">
<title>SharedModule&#45;&gt;LoaderComponent </title>
<path fill="none" stroke="black" stroke-dasharray="5,2" d="M229.25,-175C263.43,-175 302.84,-175 302.84,-175 302.84,-175 302.84,-205.98 302.84,-205.98"/>
<polygon fill="black" stroke="black" points="299.34,-205.98 302.84,-215.98 306.34,-205.98 299.34,-205.98"/>
</g>
<!-- TempConvertorPipe  -->
<g id="node5" class="node">
<title>TempConvertorPipe </title>
<polygon fill="#fb8072" stroke="black" points="243.81,-252 110.19,-252 110.19,-216 243.81,-216 243.81,-252"/>
<text text-anchor="middle" x="177" y="-229.8" font-family="Times,serif" font-size="14.00">TempConvertorPipe </text>
</g>
<!-- SharedModule&#45;&gt;TempConvertorPipe  -->
<g id="edge4" class="edge">
<title>SharedModule&#45;&gt;TempConvertorPipe </title>
<path fill="none" stroke="black" stroke-dasharray="5,2" d="M180,-187.11C180,-187.11 180,-205.99 180,-205.99"/>
<polygon fill="black" stroke="black" points="176.5,-205.99 180,-215.99 183.5,-205.99 176.5,-205.99"/>
</g>
</g>
</svg>
