<?xml version="1.0" encoding="UTF-8" standalone="no"?>
<!DOCTYPE svg PUBLIC "-//W3C//DTD SVG 1.1//EN"
 "http://www.w3.org/Graphics/SVG/1.1/DTD/svg11.dtd">
<!-- Generated by graphviz version 2.47.0 (20210316.0004)
 -->
<!-- Title: dependencies Pages: 1 -->
<svg width="1125pt" height="284pt"
 viewBox="0.00 0.00 1125.00 284.00" xmlns="http://www.w3.org/2000/svg" xmlns:xlink="http://www.w3.org/1999/xlink">
<g id="graph0" class="graph" transform="scale(1 1) rotate(0) translate(4 280)">
<title>dependencies</title>
<polygon fill="white" stroke="transparent" points="-4,4 -4,-280 1121,-280 1121,4 -4,4"/>
<text text-anchor="start" x="537.51" y="-42.4" font-family="Times-12" font-weight="bold" font-size="14.00">Legend</text>
<polygon fill="#ffffb3" stroke="transparent" points="324.5,-10 324.5,-30 344.5,-30 344.5,-10 324.5,-10"/>
<text text-anchor="start" x="348.13" y="-15.4" font-family="Times-12" font-size="14.00"> &#160;Declarations</text>
<polygon fill="#8dd3c7" stroke="transparent" points="437.5,-10 437.5,-30 457.5,-30 457.5,-10 437.5,-10"/>
<text text-anchor="start" x="461.23" y="-15.4" font-family="Times-12" font-size="14.00"> &#160;Module</text>
<polygon fill="#80b1d3" stroke="transparent" points="523.5,-10 523.5,-30 543.5,-30 543.5,-10 523.5,-10"/>
<text text-anchor="start" x="547.28" y="-15.4" font-family="Times-12" font-size="14.00"> &#160;Bootstrap</text>
<polygon fill="#fdb462" stroke="transparent" points="620.5,-10 620.5,-30 640.5,-30 640.5,-10 620.5,-10"/>
<text text-anchor="start" x="644.17" y="-15.4" font-family="Times-12" font-size="14.00"> &#160;Providers</text>
<polygon fill="#fb8072" stroke="transparent" points="716.5,-10 716.5,-30 736.5,-30 736.5,-10 716.5,-10"/>
<text text-anchor="start" x="740.23" y="-15.4" font-family="Times-12" font-size="14.00"> &#160;Exports</text>
<g id="clust1" class="cluster">
<title>cluster_FeaturesModule</title>
<polygon fill="none" stroke="black" stroke-dasharray="1,5" points="8,-70 8,-268 1109,-268 1109,-70 8,-70"/>
</g>
<g id="clust2" class="cluster">
<title>cluster_FeaturesModule_declarations</title>
<polygon fill="none" stroke="black" points="280,-78 280,-130 1101,-130 1101,-78 280,-78"/>
</g>
<g id="clust9" class="cluster">
<title>cluster_FeaturesModule_imports</title>
<polygon fill="none" stroke="black" points="16,-78 16,-130 272,-130 272,-78 16,-78"/>
</g>
<g id="clust10" class="cluster">
<title>cluster_FeaturesModule_exports</title>
<polygon fill="none" stroke="black" points="131,-208 131,-260 975,-260 975,-208 131,-208"/>
</g>
<!-- CatalogComponent -->
<g id="node1" class="node">
<title>CatalogComponent</title>
<polygon fill="#ffffb3" stroke="black" points="1093.38,-122 968.62,-122 968.62,-86 1093.38,-86 1093.38,-122"/>
<text text-anchor="middle" x="1031" y="-99.8" font-family="Times,serif" font-size="14.00">CatalogComponent</text>
</g>
<!-- FeaturesModule -->
<g id="node7" class="node">
<title>FeaturesModule</title>
<polygon fill="#8dd3c7" stroke="black" points="605.47,-187 602.47,-191 581.47,-191 578.47,-187 498.53,-187 498.53,-151 605.47,-151 605.47,-187"/>
<text text-anchor="middle" x="552" y="-164.8" font-family="Times,serif" font-size="14.00">FeaturesModule</text>
</g>
<!-- CatalogComponent&#45;&gt;FeaturesModule -->
<g id="edge1" class="edge">
<title>CatalogComponent&#45;&gt;FeaturesModule</title>
<path fill="none" stroke="black" d="M1031,-122.11C1031,-141.34 1031,-169 1031,-169 1031,-169 615.55,-169 615.55,-169"/>
<polygon fill="black" stroke="black" points="615.55,-165.5 605.55,-169 615.55,-172.5 615.55,-165.5"/>
</g>
<!-- CreateComponent -->
<g id="node2" class="node">
<title>CreateComponent</title>
<polygon fill="#ffffb3" stroke="black" points="950.86,-122 833.14,-122 833.14,-86 950.86,-86 950.86,-122"/>
<text text-anchor="middle" x="892" y="-99.8" font-family="Times,serif" font-size="14.00">CreateComponent</text>
</g>
<!-- CreateComponent&#45;&gt;FeaturesModule -->
<g id="edge2" class="edge">
<title>CreateComponent&#45;&gt;FeaturesModule</title>
<path fill="none" stroke="black" d="M913.56,-122.02C913.56,-139.37 913.56,-163 913.56,-163 913.56,-163 615.74,-163 615.74,-163"/>
<polygon fill="black" stroke="black" points="615.74,-159.5 605.74,-163 615.74,-166.5 615.74,-159.5"/>
</g>
<!-- DetailsComponent -->
<g id="node3" class="node">
<title>DetailsComponent</title>
<polygon fill="#ffffb3" stroke="black" points="815.48,-122 694.52,-122 694.52,-86 815.48,-86 815.48,-122"/>
<text text-anchor="middle" x="755" y="-99.8" font-family="Times,serif" font-size="14.00">DetailsComponent</text>
</g>
<!-- DetailsComponent&#45;&gt;FeaturesModule -->
<g id="edge3" class="edge">
<title>DetailsComponent&#45;&gt;FeaturesModule</title>
<path fill="none" stroke="black" d="M776.77,-122.24C776.77,-137.57 776.77,-157 776.77,-157 776.77,-157 615.55,-157 615.55,-157"/>
<polygon fill="black" stroke="black" points="615.55,-153.5 605.55,-157 615.55,-160.5 615.55,-153.5"/>
</g>
<!-- EditComponent -->
<g id="node4" class="node">
<title>EditComponent</title>
<polygon fill="#ffffb3" stroke="black" points="676.17,-122 571.83,-122 571.83,-86 676.17,-86 676.17,-122"/>
<text text-anchor="middle" x="624" y="-99.8" font-family="Times,serif" font-size="14.00">EditComponent</text>
</g>
<!-- EditComponent&#45;&gt;FeaturesModule -->
<g id="edge4" class="edge">
<title>EditComponent&#45;&gt;FeaturesModule</title>
<path fill="none" stroke="black" d="M588.58,-122.11C588.58,-122.11 588.58,-140.99 588.58,-140.99"/>
<polygon fill="black" stroke="black" points="585.08,-140.99 588.58,-150.99 592.08,-140.99 585.08,-140.99"/>
</g>
<!-- SearchComponent -->
<g id="node5" class="node">
<title>SearchComponent</title>
<polygon fill="#ffffb3" stroke="black" points="553.92,-122 434.08,-122 434.08,-86 553.92,-86 553.92,-122"/>
<text text-anchor="middle" x="494" y="-99.8" font-family="Times,serif" font-size="14.00">SearchComponent</text>
</g>
<!-- SearchComponent&#45;&gt;FeaturesModule -->
<g id="edge5" class="edge">
<title>SearchComponent&#45;&gt;FeaturesModule</title>
<path fill="none" stroke="black" d="M526.11,-122.11C526.11,-122.11 526.11,-140.99 526.11,-140.99"/>
<polygon fill="black" stroke="black" points="522.61,-140.99 526.11,-150.99 529.61,-140.99 522.61,-140.99"/>
</g>
<!-- WeatherComponent -->
<g id="node6" class="node">
<title>WeatherComponent</title>
<polygon fill="#ffffb3" stroke="black" points="416.24,-122 287.76,-122 287.76,-86 416.24,-86 416.24,-122"/>
<text text-anchor="middle" x="352" y="-99.8" font-family="Times,serif" font-size="14.00">WeatherComponent</text>
</g>
<!-- WeatherComponent&#45;&gt;FeaturesModule -->
<g id="edge6" class="edge">
<title>WeatherComponent&#45;&gt;FeaturesModule</title>
<path fill="none" stroke="black" d="M371.49,-122.24C371.49,-137.57 371.49,-157 371.49,-157 371.49,-157 488.33,-157 488.33,-157"/>
<polygon fill="black" stroke="black" points="488.33,-160.5 498.33,-157 488.33,-153.5 488.33,-160.5"/>
</g>
<!-- CatalogComponent  -->
<g id="node10" class="node">
<title>CatalogComponent </title>
<polygon fill="#fb8072" stroke="black" points="967.38,-252 838.62,-252 838.62,-216 967.38,-216 967.38,-252"/>
<text text-anchor="middle" x="903" y="-229.8" font-family="Times,serif" font-size="14.00">CatalogComponent </text>
</g>
<!-- FeaturesModule&#45;&gt;CatalogComponent  -->
<g id="edge9" class="edge">
<title>FeaturesModule&#45;&gt;CatalogComponent </title>
<path fill="none" stroke="black" stroke-dasharray="5,2" d="M605.53,-175C697.61,-175 876.18,-175 876.18,-175 876.18,-175 876.18,-205.98 876.18,-205.98"/>
<polygon fill="black" stroke="black" points="872.68,-205.98 876.18,-215.98 879.68,-205.98 872.68,-205.98"/>
</g>
<!-- CreateComponent  -->
<g id="node11" class="node">
<title>CreateComponent </title>
<polygon fill="#fb8072" stroke="black" points="820.86,-252 699.14,-252 699.14,-216 820.86,-216 820.86,-252"/>
<text text-anchor="middle" x="760" y="-229.8" font-family="Times,serif" font-size="14.00">CreateComponent </text>
</g>
<!-- FeaturesModule&#45;&gt;CreateComponent  -->
<g id="edge10" class="edge">
<title>FeaturesModule&#45;&gt;CreateComponent </title>
<path fill="none" stroke="black" stroke-dasharray="5,2" d="M605.81,-181C660.76,-181 738.04,-181 738.04,-181 738.04,-181 738.04,-205.76 738.04,-205.76"/>
<polygon fill="black" stroke="black" points="734.54,-205.76 738.04,-215.76 741.54,-205.76 734.54,-205.76"/>
</g>
<!-- DetailsComponent  -->
<g id="node12" class="node">
<title>DetailsComponent </title>
<polygon fill="#fb8072" stroke="black" points="681.49,-252 556.51,-252 556.51,-216 681.49,-216 681.49,-252"/>
<text text-anchor="middle" x="619" y="-229.8" font-family="Times,serif" font-size="14.00">DetailsComponent </text>
</g>
<!-- FeaturesModule&#45;&gt;DetailsComponent  -->
<g id="edge11" class="edge">
<title>FeaturesModule&#45;&gt;DetailsComponent </title>
<path fill="none" stroke="black" stroke-dasharray="5,2" d="M581.12,-187.11C581.12,-187.11 581.12,-205.99 581.12,-205.99"/>
<polygon fill="black" stroke="black" points="577.62,-205.99 581.12,-215.99 584.62,-205.99 577.62,-205.99"/>
</g>
<!-- EditComponent  -->
<g id="node13" class="node">
<title>EditComponent </title>
<polygon fill="#fb8072" stroke="black" points="539.17,-252 430.83,-252 430.83,-216 539.17,-216 539.17,-252"/>
<text text-anchor="middle" x="485" y="-229.8" font-family="Times,serif" font-size="14.00">EditComponent </text>
</g>
<!-- FeaturesModule&#45;&gt;EditComponent  -->
<g id="edge12" class="edge">
<title>FeaturesModule&#45;&gt;EditComponent </title>
<path fill="none" stroke="black" stroke-dasharray="5,2" d="M518.8,-187.11C518.8,-187.11 518.8,-205.99 518.8,-205.99"/>
<polygon fill="black" stroke="black" points="515.3,-205.99 518.8,-215.99 522.3,-205.99 515.3,-205.99"/>
</g>
<!-- SearchComponent  -->
<g id="node14" class="node">
<title>SearchComponent </title>
<polygon fill="#fb8072" stroke="black" points="412.42,-252 289.58,-252 289.58,-216 412.42,-216 412.42,-252"/>
<text text-anchor="middle" x="351" y="-229.8" font-family="Times,serif" font-size="14.00">SearchComponent </text>
</g>
<!-- FeaturesModule&#45;&gt;SearchComponent  -->
<g id="edge13" class="edge">
<title>FeaturesModule&#45;&gt;SearchComponent </title>
<path fill="none" stroke="black" stroke-dasharray="5,2" d="M498.38,-181C432.83,-181 330.51,-181 330.51,-181 330.51,-181 330.51,-205.76 330.51,-205.76"/>
<polygon fill="black" stroke="black" points="327.01,-205.76 330.51,-215.76 334.01,-205.76 327.01,-205.76"/>
</g>
<!-- WeatherComponent  -->
<g id="node15" class="node">
<title>WeatherComponent </title>
<polygon fill="#fb8072" stroke="black" points="271.24,-252 138.76,-252 138.76,-216 271.24,-216 271.24,-252"/>
<text text-anchor="middle" x="205" y="-229.8" font-family="Times,serif" font-size="14.00">WeatherComponent </text>
</g>
<!-- FeaturesModule&#45;&gt;WeatherComponent  -->
<g id="edge14" class="edge">
<title>FeaturesModule&#45;&gt;WeatherComponent </title>
<path fill="none" stroke="black" stroke-dasharray="5,2" d="M498.33,-175C399.46,-175 198.6,-175 198.6,-175 198.6,-175 198.6,-205.98 198.6,-205.98"/>
<polygon fill="black" stroke="black" points="195.1,-205.98 198.6,-215.98 202.1,-205.98 195.1,-205.98"/>
</g>
<!-- SharedModule -->
<g id="node8" class="node">
<title>SharedModule</title>
<polygon fill="#8dd3c7" stroke="black" points="264.42,-122 261.42,-126 240.42,-126 237.42,-122 165.58,-122 165.58,-86 264.42,-86 264.42,-122"/>
<text text-anchor="middle" x="215" y="-99.8" font-family="Times,serif" font-size="14.00">SharedModule</text>
</g>
<!-- SharedModule&#45;&gt;FeaturesModule -->
<g id="edge7" class="edge">
<title>SharedModule&#45;&gt;FeaturesModule</title>
<path fill="none" stroke="black" d="M231.4,-122.02C231.4,-139.37 231.4,-163 231.4,-163 231.4,-163 488.34,-163 488.34,-163"/>
<polygon fill="black" stroke="black" points="488.34,-166.5 498.34,-163 488.34,-159.5 488.34,-166.5"/>
</g>
<!-- tripRoutingModule -->
<g id="node9" class="node">
<title>tripRoutingModule</title>
<polygon fill="#8dd3c7" stroke="black" points="148.11,-122 145.11,-126 124.11,-126 121.11,-122 23.89,-122 23.89,-86 148.11,-86 148.11,-122"/>
<text text-anchor="middle" x="86" y="-99.8" font-family="Times,serif" font-size="14.00">tripRoutingModule</text>
</g>
<!-- tripRoutingModule&#45;&gt;FeaturesModule -->
<g id="edge8" class="edge">
<title>tripRoutingModule&#45;&gt;FeaturesModule</title>
<path fill="none" stroke="black" d="M143.47,-122.11C143.47,-141.34 143.47,-169 143.47,-169 143.47,-169 488.17,-169 488.17,-169"/>
<polygon fill="black" stroke="black" points="488.17,-172.5 498.17,-169 488.17,-165.5 488.17,-172.5"/>
</g>
</g>
</svg>
