<?xml version="1.0" encoding="UTF-8" standalone="no"?>
<!DOCTYPE svg PUBLIC "-//W3C//DTD SVG 1.1//EN"
 "http://www.w3.org/Graphics/SVG/1.1/DTD/svg11.dtd">
<!-- Generated by graphviz version 2.47.0 (20210316.0004)
 -->
<!-- Title: dependencies Pages: 1 -->
<svg width="1125pt" height="284pt"
 viewBox="0.00 0.00 1125.00 284.00" xmlns="http://www.w3.org/2000/svg" xmlns:xlink="http://www.w3.org/1999/xlink">
<g id="graph0" class="graph" transform="scale(1 1) rotate(0) translate(4 280)">
<title>dependencies</title>
<polygon fill="white" stroke="transparent" points="-4,4 -4,-280 1121,-280 1121,4 -4,4"/>
<text text-anchor="start" x="537.51" y="-42.4" font-family="Times-12" font-weight="bold" font-size="14.00">Legend</text>
<polygon fill="#ffffb3" stroke="transparent" points="324.5,-10 324.5,-30 344.5,-30 344.5,-10 324.5,-10"/>
<text text-anchor="start" x="348.13" y="-15.4" font-family="Times-12" font-size="14.00"> &#160;Declarations</text>
<polygon fill="#8dd3c7" stroke="transparent" points="437.5,-10 437.5,-30 457.5,-30 457.5,-10 437.5,-10"/>
<text text-anchor="start" x="461.23" y="-15.4" font-family="Times-12" font-size="14.00"> &#160;Module</text>
<polygon fill="#80b1d3" stroke="transparent" points="523.5,-10 523.5,-30 543.5,-30 543.5,-10 523.5,-10"/>
<text text-anchor="start" x="547.28" y="-15.4" font-family="Times-12" font-size="14.00"> &#160;Bootstrap</text>
<polygon fill="#fdb462" stroke="transparent" points="620.5,-10 620.5,-30 640.5,-30 640.5,-10 620.5,-10"/>
<text text-anchor="start" x="644.17" y="-15.4" font-family="Times-12" font-size="14.00"> &#160;Providers</text>
<polygon fill="#fb8072" stroke="transparent" points="716.5,-10 716.5,-30 736.5,-30 736.5,-10 716.5,-10"/>
<text text-anchor="start" x="740.23" y="-15.4" font-family="Times-12" font-size="14.00"> &#160;Exports</text>
<g id="clust1" class="cluster">
<title>cluster_FeaturesModule</title>
<polygon fill="none" stroke="black" stroke-dasharray="1,5" points="8,-70 8,-268 1109,-268 1109,-70 8,-70"/>
</g>
<g id="clust9" class="cluster">
<title>cluster_FeaturesModule_imports</title>
<polygon fill="none" stroke="black" points="845,-78 845,-130 1101,-130 1101,-78 845,-78"/>
</g>
<g id="clust10" class="cluster">
<title>cluster_FeaturesModule_exports</title>
<polygon fill="none" stroke="black" points="130,-208 130,-260 974,-260 974,-208 130,-208"/>
</g>
<g id="clust2" class="cluster">
<title>cluster_FeaturesModule_declarations</title>
<polygon fill="none" stroke="black" points="16,-78 16,-130 837,-130 837,-78 16,-78"/>
</g>
<!-- CatalogComponent -->
<g id="node1" class="node">
<title>CatalogComponent</title>
<polygon fill="#ffffb3" stroke="black" points="829.38,-122 704.62,-122 704.62,-86 829.38,-86 829.38,-122"/>
<text text-anchor="middle" x="767" y="-99.8" font-family="Times,serif" font-size="14.00">CatalogComponent</text>
</g>
<!-- FeaturesModule -->
<g id="node7" class="node">
<title>FeaturesModule</title>
<polygon fill="#8dd3c7" stroke="black" points="604.47,-187 601.47,-191 580.47,-191 577.47,-187 497.53,-187 497.53,-151 604.47,-151 604.47,-187"/>
<text text-anchor="middle" x="551" y="-164.8" font-family="Times,serif" font-size="14.00">FeaturesModule</text>
</g>
<!-- CatalogComponent&#45;&gt;FeaturesModule -->
<g id="edge1" class="edge">
<title>CatalogComponent&#45;&gt;FeaturesModule</title>
<path fill="none" stroke="black" d="M742.93,-122.24C742.93,-137.57 742.93,-157 742.93,-157 742.93,-157 614.72,-157 614.72,-157"/>
<polygon fill="black" stroke="black" points="614.72,-153.5 604.72,-157 614.72,-160.5 614.72,-153.5"/>
</g>
<!-- CreateComponent -->
<g id="node2" class="node">
<title>CreateComponent</title>
<polygon fill="#ffffb3" stroke="black" points="686.86,-122 569.14,-122 569.14,-86 686.86,-86 686.86,-122"/>
<text text-anchor="middle" x="628" y="-99.8" font-family="Times,serif" font-size="14.00">CreateComponent</text>
</g>
<!-- CreateComponent&#45;&gt;FeaturesModule -->
<g id="edge2" class="edge">
<title>CreateComponent&#45;&gt;FeaturesModule</title>
<path fill="none" stroke="black" d="M586.78,-122.11C586.78,-122.11 586.78,-140.99 586.78,-140.99"/>
<polygon fill="black" stroke="black" points="583.28,-140.99 586.78,-150.99 590.28,-140.99 583.28,-140.99"/>
</g>
<!-- DetailsComponent -->
<g id="node3" class="node">
<title>DetailsComponent</title>
<polygon fill="#ffffb3" stroke="black" points="551.48,-122 430.52,-122 430.52,-86 551.48,-86 551.48,-122"/>
<text text-anchor="middle" x="491" y="-99.8" font-family="Times,serif" font-size="14.00">DetailsComponent</text>
</g>
<!-- DetailsComponent&#45;&gt;FeaturesModule -->
<g id="edge3" class="edge">
<title>DetailsComponent&#45;&gt;FeaturesModule</title>
<path fill="none" stroke="black" d="M524.5,-122.11C524.5,-122.11 524.5,-140.99 524.5,-140.99"/>
<polygon fill="black" stroke="black" points="521,-140.99 524.5,-150.99 528,-140.99 521,-140.99"/>
</g>
<!-- EditComponent -->
<g id="node4" class="node">
<title>EditComponent</title>
<polygon fill="#ffffb3" stroke="black" points="412.17,-122 307.83,-122 307.83,-86 412.17,-86 412.17,-122"/>
<text text-anchor="middle" x="360" y="-99.8" font-family="Times,serif" font-size="14.00">EditComponent</text>
</g>
<!-- EditComponent&#45;&gt;FeaturesModule -->
<g id="edge4" class="edge">
<title>EditComponent&#45;&gt;FeaturesModule</title>
<path fill="none" stroke="black" d="M376.86,-122.24C376.86,-137.57 376.86,-157 376.86,-157 376.86,-157 487.33,-157 487.33,-157"/>
<polygon fill="black" stroke="black" points="487.33,-160.5 497.33,-157 487.33,-153.5 487.33,-160.5"/>
</g>
<!-- SearchComponent -->
<g id="node5" class="node">
<title>SearchComponent</title>
<polygon fill="#ffffb3" stroke="black" points="289.92,-122 170.08,-122 170.08,-86 289.92,-86 289.92,-122"/>
<text text-anchor="middle" x="230" y="-99.8" font-family="Times,serif" font-size="14.00">SearchComponent</text>
</g>
<!-- SearchComponent&#45;&gt;FeaturesModule -->
<g id="edge5" class="edge">
<title>SearchComponent&#45;&gt;FeaturesModule</title>
<path fill="none" stroke="black" d="M279.33,-122.02C279.33,-139.37 279.33,-163 279.33,-163 279.33,-163 487.33,-163 487.33,-163"/>
<polygon fill="black" stroke="black" points="487.33,-166.5 497.33,-163 487.33,-159.5 487.33,-166.5"/>
</g>
<!-- WeatherComponent -->
<g id="node6" class="node">
<title>WeatherComponent</title>
<polygon fill="#ffffb3" stroke="black" points="152.24,-122 23.76,-122 23.76,-86 152.24,-86 152.24,-122"/>
<text text-anchor="middle" x="88" y="-99.8" font-family="Times,serif" font-size="14.00">WeatherComponent</text>
</g>
<!-- WeatherComponent&#45;&gt;FeaturesModule -->
<g id="edge6" class="edge">
<title>WeatherComponent&#45;&gt;FeaturesModule</title>
<path fill="none" stroke="black" d="M145.12,-122.11C145.12,-141.34 145.12,-169 145.12,-169 145.12,-169 487.52,-169 487.52,-169"/>
<polygon fill="black" stroke="black" points="487.52,-172.5 497.52,-169 487.52,-165.5 487.52,-172.5"/>
</g>
<!-- CatalogComponent  -->
<g id="node10" class="node">
<title>CatalogComponent </title>
<polygon fill="#fb8072" stroke="black" points="966.38,-252 837.62,-252 837.62,-216 966.38,-216 966.38,-252"/>
<text text-anchor="middle" x="902" y="-229.8" font-family="Times,serif" font-size="14.00">CatalogComponent </text>
</g>
<!-- FeaturesModule&#45;&gt;CatalogComponent  -->
<g id="edge9" class="edge">
<title>FeaturesModule&#45;&gt;CatalogComponent </title>
<path fill="none" stroke="black" stroke-dasharray="5,2" d="M604.65,-175C689.56,-175 845.38,-175 845.38,-175 845.38,-175 845.38,-205.98 845.38,-205.98"/>
<polygon fill="black" stroke="black" points="841.88,-205.98 845.38,-215.98 848.88,-205.98 841.88,-205.98"/>
</g>
<!-- CreateComponent  -->
<g id="node11" class="node">
<title>CreateComponent </title>
<polygon fill="#fb8072" stroke="black" points="819.86,-252 698.14,-252 698.14,-216 819.86,-216 819.86,-252"/>
<text text-anchor="middle" x="759" y="-229.8" font-family="Times,serif" font-size="14.00">CreateComponent </text>
</g>
<!-- FeaturesModule&#45;&gt;CreateComponent  -->
<g id="edge10" class="edge">
<title>FeaturesModule&#45;&gt;CreateComponent </title>
<path fill="none" stroke="black" stroke-dasharray="5,2" d="M604.71,-181C672.76,-181 781.31,-181 781.31,-181 781.31,-181 781.31,-205.76 781.31,-205.76"/>
<polygon fill="black" stroke="black" points="777.81,-205.76 781.31,-215.76 784.81,-205.76 777.81,-205.76"/>
</g>
<!-- DetailsComponent  -->
<g id="node12" class="node">
<title>DetailsComponent </title>
<polygon fill="#fb8072" stroke="black" points="680.49,-252 555.51,-252 555.51,-216 680.49,-216 680.49,-252"/>
<text text-anchor="middle" x="618" y="-229.8" font-family="Times,serif" font-size="14.00">DetailsComponent </text>
</g>
<!-- FeaturesModule&#45;&gt;DetailsComponent  -->
<g id="edge11" class="edge">
<title>FeaturesModule&#45;&gt;DetailsComponent </title>
<path fill="none" stroke="black" stroke-dasharray="5,2" d="M580.12,-187.11C580.12,-187.11 580.12,-205.99 580.12,-205.99"/>
<polygon fill="black" stroke="black" points="576.62,-205.99 580.12,-215.99 583.62,-205.99 576.62,-205.99"/>
</g>
<!-- EditComponent  -->
<g id="node13" class="node">
<title>EditComponent </title>
<polygon fill="#fb8072" stroke="black" points="538.17,-252 429.83,-252 429.83,-216 538.17,-216 538.17,-252"/>
<text text-anchor="middle" x="484" y="-229.8" font-family="Times,serif" font-size="14.00">EditComponent </text>
</g>
<!-- FeaturesModule&#45;&gt;EditComponent  -->
<g id="edge12" class="edge">
<title>FeaturesModule&#45;&gt;EditComponent </title>
<path fill="none" stroke="black" stroke-dasharray="5,2" d="M517.8,-187.11C517.8,-187.11 517.8,-205.99 517.8,-205.99"/>
<polygon fill="black" stroke="black" points="514.3,-205.99 517.8,-215.99 521.3,-205.99 514.3,-205.99"/>
</g>
<!-- SearchComponent  -->
<g id="node14" class="node">
<title>SearchComponent </title>
<polygon fill="#fb8072" stroke="black" points="411.42,-252 288.58,-252 288.58,-216 411.42,-216 411.42,-252"/>
<text text-anchor="middle" x="350" y="-229.8" font-family="Times,serif" font-size="14.00">SearchComponent </text>
</g>
<!-- FeaturesModule&#45;&gt;SearchComponent  -->
<g id="edge13" class="edge">
<title>FeaturesModule&#45;&gt;SearchComponent </title>
<path fill="none" stroke="black" stroke-dasharray="5,2" d="M497.52,-181C435.67,-181 342.26,-181 342.26,-181 342.26,-181 342.26,-205.76 342.26,-205.76"/>
<polygon fill="black" stroke="black" points="338.76,-205.76 342.26,-215.76 345.76,-205.76 338.76,-205.76"/>
</g>
<!-- WeatherComponent  -->
<g id="node15" class="node">
<title>WeatherComponent </title>
<polygon fill="#fb8072" stroke="black" points="270.24,-252 137.76,-252 137.76,-216 270.24,-216 270.24,-252"/>
<text text-anchor="middle" x="204" y="-229.8" font-family="Times,serif" font-size="14.00">WeatherComponent </text>
</g>
<!-- FeaturesModule&#45;&gt;WeatherComponent  -->
<g id="edge14" class="edge">
<title>FeaturesModule&#45;&gt;WeatherComponent </title>
<path fill="none" stroke="black" stroke-dasharray="5,2" d="M497.48,-175C403.86,-175 220.21,-175 220.21,-175 220.21,-175 220.21,-205.98 220.21,-205.98"/>
<polygon fill="black" stroke="black" points="216.71,-205.98 220.21,-215.98 223.71,-205.98 216.71,-205.98"/>
</g>
<!-- SharedModule -->
<g id="node8" class="node">
<title>SharedModule</title>
<polygon fill="#8dd3c7" stroke="black" points="1093.42,-122 1090.42,-126 1069.42,-126 1066.42,-122 994.58,-122 994.58,-86 1093.42,-86 1093.42,-122"/>
<text text-anchor="middle" x="1044" y="-99.8" font-family="Times,serif" font-size="14.00">SharedModule</text>
</g>
<!-- SharedModule&#45;&gt;FeaturesModule -->
<g id="edge7" class="edge">
<title>SharedModule&#45;&gt;FeaturesModule</title>
<path fill="none" stroke="black" d="M1044,-122.11C1044,-141.34 1044,-169 1044,-169 1044,-169 614.7,-169 614.7,-169"/>
<polygon fill="black" stroke="black" points="614.7,-165.5 604.7,-169 614.7,-172.5 614.7,-165.5"/>
</g>
<!-- tripRoutingModule -->
<g id="node9" class="node">
<title>tripRoutingModule</title>
<polygon fill="#8dd3c7" stroke="black" points="977.11,-122 974.11,-126 953.11,-126 950.11,-122 852.89,-122 852.89,-86 977.11,-86 977.11,-122"/>
<text text-anchor="middle" x="915" y="-99.8" font-family="Times,serif" font-size="14.00">tripRoutingModule</text>
</g>
<!-- tripRoutingModule&#45;&gt;FeaturesModule -->
<g id="edge8" class="edge">
<title>tripRoutingModule&#45;&gt;FeaturesModule</title>
<path fill="none" stroke="black" d="M909.57,-122.02C909.57,-139.37 909.57,-163 909.57,-163 909.57,-163 614.68,-163 614.68,-163"/>
<polygon fill="black" stroke="black" points="614.68,-159.5 604.68,-163 614.68,-166.5 614.68,-159.5"/>
</g>
</g>
</svg>
