<?xml version="1.0" encoding="UTF-8" standalone="no"?>
<!DOCTYPE svg PUBLIC "-//W3C//DTD SVG 1.1//EN"
 "http://www.w3.org/Graphics/SVG/1.1/DTD/svg11.dtd">
<!-- Generated by graphviz version 2.47.0 (20210316.0004)
 -->
<!-- Title: dependencies Pages: 1 -->
<svg width="594pt" height="284pt"
 viewBox="0.00 0.00 594.00 284.00" xmlns="http://www.w3.org/2000/svg" xmlns:xlink="http://www.w3.org/1999/xlink">
<g id="graph0" class="graph" transform="scale(1 1) rotate(0) translate(4 280)">
<title>dependencies</title>
<polygon fill="white" stroke="transparent" points="-4,4 -4,-280 590,-280 590,4 -4,4"/>
<text text-anchor="start" x="272.01" y="-42.4" font-family="Times-12" font-weight="bold" font-size="14.00">Legend</text>
<polygon fill="#ffffb3" stroke="transparent" points="59,-10 59,-30 79,-30 79,-10 59,-10"/>
<text text-anchor="start" x="82.63" y="-15.4" font-family="Times-12" font-size="14.00"> &#160;Declarations</text>
<polygon fill="#8dd3c7" stroke="transparent" points="172,-10 172,-30 192,-30 192,-10 172,-10"/>
<text text-anchor="start" x="195.73" y="-15.4" font-family="Times-12" font-size="14.00"> &#160;Module</text>
<polygon fill="#80b1d3" stroke="transparent" points="258,-10 258,-30 278,-30 278,-10 258,-10"/>
<text text-anchor="start" x="281.78" y="-15.4" font-family="Times-12" font-size="14.00"> &#160;Bootstrap</text>
<polygon fill="#fdb462" stroke="transparent" points="355,-10 355,-30 375,-30 375,-10 355,-10"/>
<text text-anchor="start" x="378.67" y="-15.4" font-family="Times-12" font-size="14.00"> &#160;Providers</text>
<polygon fill="#fb8072" stroke="transparent" points="451,-10 451,-30 471,-30 471,-10 451,-10"/>
<text text-anchor="start" x="474.73" y="-15.4" font-family="Times-12" font-size="14.00"> &#160;Exports</text>
<g id="clust1" class="cluster">
<title>cluster_AuthModule</title>
<polygon fill="none" stroke="black" stroke-dasharray="1,5" points="8,-70 8,-268 578,-268 578,-70 8,-70"/>
</g>
<g id="clust2" class="cluster">
<title>cluster_AuthModule_declarations</title>
<polygon fill="none" stroke="black" points="16,-78 16,-130 570,-130 570,-78 16,-78"/>
</g>
<g id="clust8" class="cluster">
<title>cluster_AuthModule_exports</title>
<polygon fill="none" stroke="black" points="80,-208 80,-260 505,-260 505,-208 80,-208"/>
</g>
<!-- LoginComponent -->
<g id="node1" class="node">
<title>LoginComponent</title>
<polygon fill="#ffffb3" stroke="black" points="562.28,-122 447.72,-122 447.72,-86 562.28,-86 562.28,-122"/>
<text text-anchor="middle" x="505" y="-99.8" font-family="Times,serif" font-size="14.00">LoginComponent</text>
</g>
<!-- AuthModule -->
<g id="node5" class="node">
<title>AuthModule</title>
<polygon fill="#8dd3c7" stroke="black" points="342.55,-187 339.55,-191 318.55,-191 315.55,-187 255.45,-187 255.45,-151 342.55,-151 342.55,-187"/>
<text text-anchor="middle" x="299" y="-164.8" font-family="Times,serif" font-size="14.00">AuthModule</text>
</g>
<!-- LoginComponent&#45;&gt;AuthModule -->
<g id="edge1" class="edge">
<title>LoginComponent&#45;&gt;AuthModule</title>
<path fill="none" stroke="black" d="M472.38,-122.02C472.38,-139.37 472.38,-163 472.38,-163 472.38,-163 352.75,-163 352.75,-163"/>
<polygon fill="black" stroke="black" points="352.75,-159.5 342.75,-163 352.75,-166.5 352.75,-159.5"/>
</g>
<!-- LogoutComponent -->
<g id="node2" class="node">
<title>LogoutComponent</title>
<polygon fill="#ffffb3" stroke="black" points="429.78,-122 308.22,-122 308.22,-86 429.78,-86 429.78,-122"/>
<text text-anchor="middle" x="369" y="-99.8" font-family="Times,serif" font-size="14.00">LogoutComponent</text>
</g>
<!-- LogoutComponent&#45;&gt;AuthModule -->
<g id="edge2" class="edge">
<title>LogoutComponent&#45;&gt;AuthModule</title>
<path fill="none" stroke="black" d="M325.44,-122.11C325.44,-122.11 325.44,-140.99 325.44,-140.99"/>
<polygon fill="black" stroke="black" points="321.94,-140.99 325.44,-150.99 328.94,-140.99 321.94,-140.99"/>
</g>
<!-- ProfileComponent -->
<g id="node3" class="node">
<title>ProfileComponent</title>
<polygon fill="#ffffb3" stroke="black" points="289.93,-122 170.07,-122 170.07,-86 289.93,-86 289.93,-122"/>
<text text-anchor="middle" x="230" y="-99.8" font-family="Times,serif" font-size="14.00">ProfileComponent</text>
</g>
<!-- ProfileComponent&#45;&gt;AuthModule -->
<g id="edge3" class="edge">
<title>ProfileComponent&#45;&gt;AuthModule</title>
<path fill="none" stroke="black" d="M272.47,-122.11C272.47,-122.11 272.47,-140.99 272.47,-140.99"/>
<polygon fill="black" stroke="black" points="268.97,-140.99 272.47,-150.99 275.97,-140.99 268.97,-140.99"/>
</g>
<!-- RegisterComponent -->
<g id="node4" class="node">
<title>RegisterComponent</title>
<polygon fill="#ffffb3" stroke="black" points="151.98,-122 24.02,-122 24.02,-86 151.98,-86 151.98,-122"/>
<text text-anchor="middle" x="88" y="-99.8" font-family="Times,serif" font-size="14.00">RegisterComponent</text>
</g>
<!-- RegisterComponent&#45;&gt;AuthModule -->
<g id="edge4" class="edge">
<title>RegisterComponent&#45;&gt;AuthModule</title>
<path fill="none" stroke="black" d="M120.12,-122.02C120.12,-139.37 120.12,-163 120.12,-163 120.12,-163 245.24,-163 245.24,-163"/>
<polygon fill="black" stroke="black" points="245.24,-166.5 255.24,-163 245.24,-159.5 245.24,-166.5"/>
</g>
<!-- LoginComponent  -->
<g id="node6" class="node">
<title>LoginComponent </title>
<polygon fill="#fb8072" stroke="black" points="497.28,-252 378.72,-252 378.72,-216 497.28,-216 497.28,-252"/>
<text text-anchor="middle" x="438" y="-229.8" font-family="Times,serif" font-size="14.00">LoginComponent </text>
</g>
<!-- AuthModule&#45;&gt;LoginComponent  -->
<g id="edge5" class="edge">
<title>AuthModule&#45;&gt;LoginComponent </title>
<path fill="none" stroke="black" stroke-dasharray="5,2" d="M342.77,-175C371.72,-175 404.38,-175 404.38,-175 404.38,-175 404.38,-205.98 404.38,-205.98"/>
<polygon fill="black" stroke="black" points="400.88,-205.98 404.38,-215.98 407.88,-205.98 400.88,-205.98"/>
</g>
<!-- ProfileComponent  -->
<g id="node7" class="node">
<title>ProfileComponent </title>
<polygon fill="#fb8072" stroke="black" points="360.43,-252 237.57,-252 237.57,-216 360.43,-216 360.43,-252"/>
<text text-anchor="middle" x="299" y="-229.8" font-family="Times,serif" font-size="14.00">ProfileComponent </text>
</g>
<!-- AuthModule&#45;&gt;ProfileComponent  -->
<g id="edge6" class="edge">
<title>AuthModule&#45;&gt;ProfileComponent </title>
<path fill="none" stroke="black" stroke-dasharray="5,2" d="M299,-187.11C299,-187.11 299,-205.99 299,-205.99"/>
<polygon fill="black" stroke="black" points="295.5,-205.99 299,-215.99 302.5,-205.99 295.5,-205.99"/>
</g>
<!-- RegisterComponent  -->
<g id="node8" class="node">
<title>RegisterComponent </title>
<polygon fill="#fb8072" stroke="black" points="219.99,-252 88.01,-252 88.01,-216 219.99,-216 219.99,-252"/>
<text text-anchor="middle" x="154" y="-229.8" font-family="Times,serif" font-size="14.00">RegisterComponent </text>
</g>
<!-- AuthModule&#45;&gt;RegisterComponent  -->
<g id="edge7" class="edge">
<title>AuthModule&#45;&gt;RegisterComponent </title>
<path fill="none" stroke="black" stroke-dasharray="5,2" d="M255.2,-175C226.78,-175 195.01,-175 195.01,-175 195.01,-175 195.01,-205.98 195.01,-205.98"/>
<polygon fill="black" stroke="black" points="191.51,-205.98 195.01,-215.98 198.51,-205.98 191.51,-205.98"/>
</g>
</g>
</svg>
